<svg width="350" height="96" viewBox="0 0 350 96" fill="none" xmlns="http://www.w3.org/2000/svg">
<path d="M96.104 34.288C98.8347 34.288 101.267 34.864 103.4 36.016C105.533 37.1253 107.219 38.8107 108.456 41.072C109.693 43.3333 110.312 46.0853 110.312 49.328V70H104.552V50.16C104.552 46.6613 103.677 43.9947 101.928 42.16C100.221 40.2827 97.896 39.344 94.952 39.344C91.9227 39.344 89.512 40.3253 87.72 42.288C85.928 44.208 85.032 47.0027 85.032 50.672V70H79.272V50.16C79.272 46.6613 78.3973 43.9947 76.648 42.16C74.9413 40.2827 72.616 39.344 69.672 39.344C66.6427 39.344 64.232 40.3253 62.44 42.288C60.648 44.208 59.752 47.0027 59.752 50.672V70H53.928V34.928H59.752V39.984C60.904 38.1493 62.44 36.7413 64.36 35.76C66.3227 34.7787 68.4773 34.288 70.824 34.288C73.768 34.288 76.3707 34.9493 78.632 36.272C80.8933 37.5947 82.5787 39.536 83.688 42.096C84.6693 39.6213 86.2907 37.7013 88.552 36.336C90.8133 34.9707 93.3307 34.288 96.104 34.288ZM117.69 52.336C117.69 48.752 118.415 45.616 119.866 42.928C121.316 40.1973 123.3 38.0853 125.818 36.592C128.378 35.0987 131.215 34.352 134.33 34.352C137.402 34.352 140.068 35.0133 142.33 36.336C144.591 37.6587 146.276 39.3227 147.386 41.328V34.928H153.274V70H147.386V63.472C146.234 65.52 144.506 67.2267 142.202 68.592C139.94 69.9147 137.295 70.576 134.266 70.576C131.151 70.576 128.335 69.808 125.818 68.272C123.3 66.736 121.316 64.5813 119.866 61.808C118.415 59.0347 117.69 55.8773 117.69 52.336ZM147.386 52.4C147.386 49.7547 146.852 47.4507 145.786 45.488C144.719 43.5253 143.268 42.032 141.434 41.008C139.642 39.9413 137.658 39.408 135.482 39.408C133.306 39.408 131.322 39.92 129.53 40.944C127.738 41.968 126.308 43.4613 125.242 45.424C124.175 47.3867 123.642 49.6907 123.642 52.336C123.642 55.024 124.175 57.3707 125.242 59.376C126.308 61.3387 127.738 62.8533 129.53 63.92C131.322 64.944 133.306 65.456 135.482 65.456C137.658 65.456 139.642 64.944 141.434 63.92C143.268 62.8533 144.719 61.3387 145.786 59.376C146.852 57.3707 147.386 55.0453 147.386 52.4ZM166.124 29.232C165.014 29.232 164.076 28.848 163.308 28.08C162.54 27.312 162.156 26.3733 162.156 25.264C162.156 24.1547 162.54 23.216 163.308 22.448C164.076 21.68 165.014 21.296 166.124 21.296C167.19 21.296 168.086 21.68 168.812 22.448C169.58 23.216 169.964 24.1547 169.964 25.264C169.964 26.3733 169.58 27.312 168.812 28.08C168.086 28.848 167.19 29.232 166.124 29.232ZM168.94 34.928V70H163.116V34.928H168.94ZM184.69 22.64V70H178.866V22.64H184.69Z" fill="black"/>
<path d="M207.344 70.576C204.656 70.576 202.245 70.128 200.112 69.232C197.979 68.2933 196.293 67.0133 195.056 65.392C193.819 63.728 193.136 61.8293 193.008 59.696H199.024C199.195 61.4453 200.005 62.8747 201.456 63.984C202.949 65.0933 204.891 65.648 207.28 65.648C209.499 65.648 211.248 65.1573 212.528 64.176C213.808 63.1947 214.448 61.9573 214.448 60.464C214.448 58.928 213.765 57.7973 212.4 57.072C211.035 56.304 208.923 55.5573 206.064 54.832C203.461 54.1493 201.328 53.4667 199.664 52.784C198.043 52.0587 196.635 51.0133 195.44 49.648C194.288 48.24 193.712 46.4053 193.712 44.144C193.712 42.352 194.245 40.7093 195.312 39.216C196.379 37.7227 197.893 36.5493 199.856 35.696C201.819 34.8 204.059 34.352 206.576 34.352C210.459 34.352 213.595 35.3333 215.984 37.296C218.373 39.2587 219.653 41.9467 219.824 45.36H214C213.872 43.5253 213.125 42.0533 211.76 40.944C210.437 39.8347 208.645 39.28 206.384 39.28C204.293 39.28 202.629 39.728 201.392 40.624C200.155 41.52 199.536 42.6933 199.536 44.144C199.536 45.296 199.899 46.256 200.624 47.024C201.392 47.7493 202.331 48.3467 203.44 48.816C204.592 49.2427 206.171 49.7333 208.176 50.288C210.693 50.9707 212.741 51.6533 214.32 52.336C215.899 52.976 217.243 53.9573 218.352 55.28C219.504 56.6027 220.101 58.3307 220.144 60.464C220.144 62.384 219.611 64.112 218.544 65.648C217.477 67.184 215.963 68.4 214 69.296C212.08 70.1493 209.861 70.576 207.344 70.576ZM226.19 52.336C226.19 48.752 226.915 45.616 228.366 42.928C229.816 40.1973 231.8 38.0853 234.318 36.592C236.878 35.0987 239.715 34.352 242.83 34.352C245.902 34.352 248.568 35.0133 250.83 36.336C253.091 37.6587 254.776 39.3227 255.886 41.328V34.928H261.774V70H255.886V63.472C254.734 65.52 253.006 67.2267 250.702 68.592C248.44 69.9147 245.795 70.576 242.766 70.576C239.651 70.576 236.835 69.808 234.318 68.272C231.8 66.736 229.816 64.5813 228.366 61.808C226.915 59.0347 226.19 55.8773 226.19 52.336ZM255.886 52.4C255.886 49.7547 255.352 47.4507 254.286 45.488C253.219 43.5253 251.768 42.032 249.934 41.008C248.142 39.9413 246.158 39.408 243.982 39.408C241.806 39.408 239.822 39.92 238.03 40.944C236.238 41.968 234.808 43.4613 233.742 45.424C232.675 47.3867 232.142 49.6907 232.142 52.336C232.142 55.024 232.675 57.3707 233.742 59.376C234.808 61.3387 236.238 62.8533 238.03 63.92C239.822 64.944 241.806 65.456 243.982 65.456C246.158 65.456 248.142 64.944 249.934 63.92C251.768 62.8533 253.219 61.3387 254.286 59.376C255.352 57.3707 255.886 55.0453 255.886 52.4ZM286.08 34.352C289.109 34.352 291.754 35.0133 294.016 36.336C296.32 37.6587 298.026 39.3227 299.136 41.328V34.928H305.024V70.768C305.024 73.968 304.341 76.8053 302.976 79.28C301.61 81.7973 299.648 83.76 297.088 85.168C294.57 86.576 291.626 87.28 288.256 87.28C283.648 87.28 279.808 86.192 276.736 84.016C273.664 81.84 271.85 78.8747 271.296 75.12H277.056C277.696 77.2533 279.018 78.96 281.024 80.24C283.029 81.5627 285.44 82.224 288.256 82.224C291.456 82.224 294.058 81.2213 296.064 79.216C298.112 77.2107 299.136 74.3947 299.136 70.768V63.408C297.984 65.456 296.277 67.1627 294.016 68.528C291.754 69.8933 289.109 70.576 286.08 70.576C282.965 70.576 280.128 69.808 277.568 68.272C275.05 66.736 273.066 64.5813 271.616 61.808C270.165 59.0347 269.44 55.8773 269.44 52.336C269.44 48.752 270.165 45.616 271.616 42.928C273.066 40.1973 275.05 38.0853 277.568 36.592C280.128 35.0987 282.965 34.352 286.08 34.352ZM299.136 52.4C299.136 49.7547 298.602 47.4507 297.536 45.488C296.469 43.5253 295.018 42.032 293.184 41.008C291.392 39.9413 289.408 39.408 287.232 39.408C285.056 39.408 283.072 39.92 281.28 40.944C279.488 41.968 278.058 43.4613 276.992 45.424C275.925 47.3867 275.392 49.6907 275.392 52.336C275.392 55.024 275.925 57.3707 276.992 59.376C278.058 61.3387 279.488 62.8533 281.28 63.92C283.072 64.944 285.056 65.456 287.232 65.456C289.408 65.456 291.392 64.944 293.184 63.92C295.018 62.8533 296.469 61.3387 297.536 59.376C298.602 57.3707 299.136 55.0453 299.136 52.4ZM346.866 51.12C346.866 52.2293 346.802 53.4027 346.674 54.64H318.642C318.855 58.096 320.028 60.8053 322.162 62.768C324.338 64.688 326.962 65.648 330.034 65.648C332.551 65.648 334.642 65.072 336.306 63.92C338.012 62.7253 339.207 61.1467 339.89 59.184H346.162C345.223 62.5547 343.346 65.3067 340.53 67.44C337.714 69.5307 334.215 70.576 330.034 70.576C326.706 70.576 323.719 69.8293 321.074 68.336C318.471 66.8427 316.423 64.7307 314.93 62C313.436 59.2267 312.69 56.0267 312.69 52.4C312.69 48.7733 313.415 45.5947 314.866 42.864C316.316 40.1333 318.343 38.0427 320.946 36.592C323.591 35.0987 326.62 34.352 330.034 34.352C333.362 34.352 336.306 35.0773 338.866 36.528C341.426 37.9787 343.388 39.984 344.754 42.544C346.162 45.0613 346.866 47.92 346.866 51.12ZM340.85 49.904C340.85 47.6853 340.359 45.7867 339.378 44.208C338.396 42.5867 337.052 41.3707 335.346 40.56C333.682 39.7067 331.826 39.28 329.778 39.28C326.834 39.28 324.316 40.2187 322.226 42.096C320.178 43.9733 319.004 46.576 318.706 49.904H340.85Z" fill="url(#paint0_linear_54_6)"/>
<path d="M3.50684 41.5625C3.50684 39.822 4.19824 38.1528 5.42895 36.9221C6.65966 35.6914 8.32885 35 10.0693 35H38.9373C40.6778 35 42.347 35.6914 43.5777 36.9221C44.8084 38.1528 45.4998 39.822 45.4998 41.5625V41.58L24.4998 52.3372L3.50684 41.587V41.5625ZM3.50684 44.5358V61.6875C3.50684 63.428 4.19824 65.0972 5.42895 66.3279C6.65966 67.5586 8.32885 68.25 10.0693 68.25H38.9373C40.6778 68.25 42.347 67.5586 43.5777 66.3279C44.8084 65.0972 45.4998 63.428 45.4998 61.6875V44.5305L25.0983 54.9815C24.9131 55.0764 24.708 55.1259 24.4998 55.1259C24.2917 55.1259 24.0866 55.0764 23.9013 54.9815L3.50684 44.5358Z" fill="url(#paint1_linear_54_6)"/>
<defs>
<linearGradient id="paint0_linear_54_6" x1="270" y1="0" x2="270" y2="96" gradientUnits="userSpaceOnUse">
<stop stop-color="#00FFFF"/>
<stop offset="1" stop-color="#1E40AF"/>
</linearGradient>
<linearGradient id="paint1_linear_54_6" x1="24.5033" y1="35" x2="24.5033" y2="68.25" gradientUnits="userSpaceOnUse">
<stop stop-color="#00FFFF"/>
<stop offset="1" stop-color="#1E40AF"/>
</linearGradient>
</defs>
</svg>
